<svg width="120" height="36" viewBox="0 0 120 36" fill="none" xmlns="http://www.w3.org/2000/svg">
<rect width="120" height="24" fill="#27AE60"/>
<path fill-rule="evenodd" clip-rule="evenodd" d="M18.515 8.66667V10.8892C17.9042 10.8892 17.4042 11.3892 17.4042 12C17.4042 12.6117 17.9042 13.1117 18.515 13.1117V15.3333C18.515 15.945 18.015 16.445 17.4042 16.445H8.51501C7.90417 16.445 7.40417 15.945 7.40417 15.3333V13.1117C7.6989 13.1123 7.98181 12.9959 8.19068 12.788C8.39955 12.58 8.51726 12.2976 8.51792 12.0029C8.51859 11.7082 8.40215 11.4253 8.19421 11.2164C7.98628 11.0075 7.7039 10.8898 7.40917 10.8892V8.66667C7.41001 8.05 7.90417 7.55583 8.51501 7.55583H17.4042C18.015 7.55583 18.515 8.05 18.515 8.66667ZM12.4525 14.4708C12.4392 14.575 12.5108 14.6667 12.6042 14.6667C12.6322 14.6662 12.6595 14.658 12.6831 14.6428C12.7067 14.6276 12.7255 14.6062 12.7375 14.5808L12.9408 14.185C13.1917 13.6967 13.6342 12.8358 14.27 11.6033C14.3283 11.4642 14.27 11.4075 14.1633 11.4075H13.2283L13.4675 9.52917C13.4808 9.425 13.4092 9.33333 13.3158 9.33333C13.2879 9.33404 13.2607 9.34242 13.2371 9.35756C13.2136 9.37269 13.1947 9.39401 13.1825 9.41917L12.3725 11.0017C12.0917 11.5492 11.8592 12.0017 11.6767 12.3617L11.6758 12.3633C11.6625 12.3842 11.5317 12.5925 11.7592 12.5925H12.6925L12.4525 14.4708Z" fill="white"/>
<path d="M22.2035 7.56587H23.3966L25.6764 10.8497L27.968 7.56587H29.1611L26.2552 11.6176L29.3855 16H28.1925L25.6764 12.3854L23.1722 16H21.9791L25.0858 11.6176L22.2035 7.56587ZM33.115 7.47137H34.1899L32.5834 9.196H31.9337L33.115 7.47137ZM32.8315 9.72756C33.7056 9.72756 34.3435 9.952 34.7687 10.4127C35.1231 10.8143 35.3121 11.3695 35.3121 12.0782V16H34.4262V14.9723C34.1899 15.3031 33.871 15.5866 33.4812 15.7992C33.0323 16.0354 32.5243 16.1654 31.9692 16.1654C31.3549 16.1654 30.8706 16.0118 30.5044 15.7047C30.1264 15.3857 29.9374 14.9723 29.9374 14.4762C29.9374 13.7792 30.2091 13.2595 30.7761 12.9051C31.2722 12.5744 31.981 12.3972 32.9023 12.3854L34.3671 12.3617V12.0428C34.3671 11.0151 33.8355 10.5072 32.7724 10.5072C32.3235 10.5072 31.9573 10.5899 31.6738 10.7789C31.3549 10.9679 31.1541 11.2632 31.0596 11.653L30.1264 11.5821C30.2563 10.9442 30.5753 10.4599 31.0714 10.1528C31.5203 9.86931 32.0991 9.72756 32.8315 9.72756ZM34.3671 13.0705L32.9614 13.0941C31.5912 13.1177 30.906 13.5666 30.906 14.4526C30.906 14.7361 31.0123 14.9605 31.2486 15.1495C31.4848 15.3267 31.792 15.4212 32.17 15.4212C32.7488 15.4212 33.2567 15.2322 33.7056 14.8542C34.1427 14.488 34.3671 14.0627 34.3671 13.5902V13.0705ZM39.4062 9.72756C40.1622 9.72756 40.7647 9.90475 41.2254 10.2591C41.6979 10.6253 41.9814 11.1805 42.0877 11.9247H41.1545C41.0718 11.4522 40.8828 11.0978 40.5875 10.8616C40.2804 10.6253 39.8905 10.519 39.4062 10.519C38.8156 10.519 38.3431 10.7434 38.0005 11.1923C37.6698 11.6294 37.5044 12.22 37.5044 12.9642C37.5044 13.7084 37.658 14.299 37.9887 14.7242C38.3077 15.1495 38.7802 15.3739 39.3944 15.3739C40.4339 15.3739 41.0364 14.8424 41.1781 13.7911H42.1231C41.9814 14.5707 41.686 15.1731 41.2135 15.5747C40.7529 15.9646 40.1504 16.1654 39.3944 16.1654C38.473 16.1654 37.7643 15.8582 37.2564 15.244C36.772 14.6652 36.5358 13.9092 36.5358 12.976C36.5358 12.0428 36.772 11.2868 37.2564 10.6962C37.7761 10.0465 38.4967 9.72756 39.4062 9.72756ZM50.0243 9.72756C51.5363 9.72756 52.3041 10.5662 52.3041 12.2436V16H51.3591V12.3145C51.3591 11.1214 50.8157 10.5308 49.7526 10.5308C49.3274 10.5308 48.9612 10.6844 48.654 10.9915C48.3233 11.3222 48.1461 11.7593 48.1107 12.3145V16H47.1657V9.89294H48.1107V10.7907C48.3233 10.4481 48.595 10.1882 48.9257 10.0111C49.2565 9.82206 49.6227 9.72756 50.0243 9.72756ZM53.7641 7.4005H54.7091V10.897C54.9217 10.5072 55.2052 10.2119 55.5596 10.0111C55.8903 9.82206 56.2565 9.72756 56.6699 9.72756C57.3787 9.72756 57.9339 9.92838 58.3119 10.3536C58.6899 10.7671 58.8789 11.3695 58.8789 12.1491V16H57.9339V12.2909C57.9339 11.7239 57.7921 11.2868 57.5322 10.9797C57.2487 10.6726 56.8589 10.519 56.351 10.519C55.8785 10.519 55.4887 10.708 55.1816 11.086C54.8626 11.464 54.7091 11.9483 54.7091 12.5153V16H53.7641V7.4005ZM62.9856 9.72756C63.8598 9.72756 64.4976 9.952 64.9229 10.4127C65.2773 10.8143 65.4663 11.3695 65.4663 12.0782V16H64.5803V14.9723C64.3441 15.3031 64.0251 15.5747 63.6471 15.7874C63.1983 16.0354 62.6903 16.1654 62.1233 16.1654C61.5091 16.1654 61.0248 16.0118 60.6586 15.7047C60.2806 15.3857 60.0916 14.9723 60.0916 14.4762C60.0916 13.7792 60.3633 13.2595 60.9303 12.9051C61.4264 12.5744 62.1351 12.3972 63.0565 12.3854L64.5213 12.3617V12.0428C64.5213 11.0151 63.9897 10.5072 62.9266 10.5072C62.4777 10.5072 62.1115 10.5899 61.828 10.7789C61.5091 10.9679 61.3083 11.2632 61.2138 11.653L60.2806 11.5821C60.4105 10.9442 60.7295 10.4599 61.2256 10.1528C61.6745 9.86931 62.2533 9.72756 62.9856 9.72756ZM64.5213 13.0705L63.1156 13.0941C61.7453 13.1177 61.0602 13.5666 61.0602 14.4526C61.0602 14.7361 61.1665 14.9605 61.4028 15.1495C61.639 15.3267 61.9461 15.4212 62.3241 15.4212C62.903 15.4212 63.4109 15.2322 63.8598 14.8542C64.2968 14.488 64.5213 14.0627 64.5213 13.5902V13.0705ZM62.8947 16.8505C63.0482 16.8505 63.1782 16.8978 63.2845 17.0041C63.379 17.0986 63.4262 17.2285 63.4262 17.3939C63.4262 17.5356 63.379 17.6656 63.2845 17.7719C63.1782 17.8664 63.0482 17.9136 62.8947 17.9136C62.7293 17.9136 62.6112 17.8664 62.5167 17.7719C62.4103 17.6656 62.3631 17.5356 62.3631 17.3939C62.3631 17.2285 62.4103 17.0986 62.5167 17.0041C62.6112 16.8978 62.7293 16.8505 62.8947 16.8505ZM62.4815 7.54225H63.2847L64.5605 9.04244H63.9226L62.8831 7.99112L61.8554 9.04244H61.2176L62.4815 7.54225ZM69.7848 9.72756C71.2968 9.72756 72.0647 10.5662 72.0647 12.2436V16H71.1197V12.3145C71.1197 11.1214 70.5763 10.5308 69.5132 10.5308C69.0879 10.5308 68.7217 10.6844 68.4146 10.9915C68.0838 11.3222 67.9067 11.7593 67.8712 12.3145V16H66.9262V9.89294H67.8712V10.7907C68.0838 10.4481 68.3555 10.1882 68.6863 10.0111C69.017 9.82206 69.3832 9.72756 69.7848 9.72756ZM79.0884 7.92025V9.89294H80.6004V10.6844H79.0884V14.5707C79.0884 14.7951 79.1238 14.9605 79.2183 15.055C79.301 15.1495 79.4546 15.2086 79.6672 15.2086H80.4468V16H79.5255C79.0293 16 78.6631 15.8701 78.4505 15.6102C78.2497 15.3739 78.1552 15.0314 78.1552 14.5707V10.6844H76.9267V9.89294H78.1552V8.31006L79.0884 7.92025ZM87.469 8.42819H88.2959V9.20781C88.2959 10.1292 87.8588 10.5899 86.9965 10.5899H86.8075V16H85.8625V15.055C85.3664 15.7874 84.7049 16.1654 83.878 16.1654C82.3896 16.1654 81.6572 15.3267 81.6572 13.6729V9.89294H82.6022V13.6257C82.6022 14.2045 82.7204 14.6416 82.9684 14.9251C83.2165 15.2086 83.6181 15.3621 84.1733 15.3621C84.5749 15.3621 84.9411 15.1967 85.2601 14.8896C85.5908 14.5589 85.7916 14.1336 85.8625 13.6139V9.89294H86.7248C87.2209 9.89294 87.469 9.64487 87.469 9.14875V8.42819ZM84.8022 6.47137H85.8772L84.2589 8.196H83.6092L84.8022 6.47137ZM91.928 9.72756C92.684 9.72756 93.2865 9.90475 93.7472 10.2591C94.2197 10.6253 94.5032 11.1805 94.6095 11.9247H93.6763C93.5936 11.4522 93.4046 11.0978 93.1093 10.8616C92.8022 10.6253 92.4123 10.519 91.928 10.519C91.3374 10.519 90.8649 10.7434 90.5223 11.1923C90.1916 11.6294 90.0262 12.22 90.0262 12.9642C90.0262 13.7084 90.1798 14.299 90.5105 14.7242C90.8295 15.1495 91.302 15.3739 91.9162 15.3739C92.9557 15.3739 93.5581 14.8424 93.6999 13.7911H94.6449C94.5032 14.5707 94.2078 15.1731 93.7353 15.5747C93.2747 15.9646 92.6722 16.1654 91.9162 16.1654C90.9948 16.1654 90.2861 15.8582 89.7781 15.244C89.2938 14.6652 89.0576 13.9092 89.0576 12.976C89.0576 12.0428 89.2938 11.2868 89.7781 10.6962C90.2979 10.0465 91.0185 9.72756 91.928 9.72756ZM101.318 7.92025V9.89294H102.83V10.6844H101.318V14.5707C101.318 14.7951 101.353 14.9605 101.448 15.055C101.53 15.1495 101.684 15.2086 101.896 15.2086H102.676V16H101.755C101.259 16 100.892 15.8701 100.68 15.6102C100.479 15.3739 100.384 15.0314 100.384 14.5707V10.6844H99.1559V9.89294H100.384V8.31006L101.318 7.92025ZM103.886 7.4005H104.831V10.897C105.044 10.5072 105.328 10.2119 105.682 10.0111C106.013 9.82206 106.379 9.72756 106.792 9.72756C107.501 9.72756 108.056 9.92838 108.434 10.3536C108.812 10.7671 109.001 11.3695 109.001 12.1491V16H108.056V12.2909C108.056 11.7239 107.914 11.2868 107.655 10.9797C107.371 10.6726 106.981 10.519 106.473 10.519C106.001 10.519 105.611 10.708 105.304 11.086C104.985 11.464 104.831 11.9483 104.831 12.5153V16H103.886V7.4005ZM109.6 7.47137H110.675L111.856 9.196H111.206L109.6 7.47137ZM110.769 9.89294H111.702V16H110.769V9.89294Z" fill="white"/>
<mask id="path-3-inside-1_1_690" fill="white">
<path d="M0 24H6V36H0V24Z"/>
</mask>
<path d="M0 24V18H-6V24H0ZM0 36H-6V42H0V36ZM0 30H6V18H0V30ZM6 30H0V42H6V30ZM6 36V24H-6V36H6Z" fill="#1D8046" mask="url(#path-3-inside-1_1_690)"/>
</svg>
